<svg id="Filled" height="512" viewBox="0 0 512 512" width="512" xmlns="http://www.w3.org/2000/svg"><g fill="#5d3727"><path d="m424 488h-48l-24-144v-16h48v16z"/><path d="m160 328v16l-24 144h-48l24-144v-16z"/><path d="m232 360h48v128h-48z"/></g><path d="m192 336h128a0 0 0 0 1 0 0v24a16 16 0 0 1 -16 16h-96a16 16 0 0 1 -16-16v-24a0 0 0 0 1 0 0z" fill="#976048"/><path d="m224 24h64v56h-64z" fill="#976048"/><path d="m64 56h384v272h-384z" fill="#fae8d8"/><path d="m40 312h432v32h-432z" fill="#8a523a"/><path d="m288 104v48h-32a16 16 0 0 0 -16 16v32a24 24 0 0 1 -24 24 24 24 0 0 1 -24-24v-32a16 16 0 0 0 -16-16 16 16 0 0 0 -16 16 24 24 0 0 1 -24 24 24 24 0 0 1 -24-24v-48a16 16 0 0 1 16-16z" fill="#8e9c4c"/><path d="m381.375 197.427a16 16 0 0 1 16 16v216a0 0 0 0 1 0 0h-32a0 0 0 0 1 0 0v-216a16 16 0 0 1 16-16z" fill="#2b70a8" transform="matrix(-.924 .383 -.383 -.924 853.662 457.049)"/><path d="m319.453 158.561h32v88h-32z" fill="#fcb442" transform="matrix(-.924 .383 -.383 -.924 722.887 261.331)"/><path d="m288 88 45.491 32.442a32 32 0 0 1 13.071 30.763l-3.981 26.756-29.564 12.245-21.734-16.1a32 32 0 0 1 -12.51-31z" fill="#818a55"/><path d="m40 352h62.556l-22.447 134.685a8 8 0 0 0 7.891 9.315h48a8 8 0 0 0 7.891-6.685l22.886-137.315h17.223v8a24.027 24.027 0 0 0 24 24h16v104a8 8 0 0 0 8 8h48a8 8 0 0 0 8-8v-104h16a24.027 24.027 0 0 0 24-24v-8h17.223l22.886 137.315a8 8 0 0 0 7.891 6.685h48a8 8 0 0 0 7.891-9.315l-9.5-57.029a23.98 23.98 0 0 0 6.439-1.663 24 24 0 0 0 12.989-31.352l-18.489-44.641h48.67a8 8 0 0 0 8-8v-32a8 8 0 0 0 -8-8h-16v-248a8 8 0 0 0 -8-8h-152v-24a8 8 0 0 0 -8-8h-64a8 8 0 0 0 -8 8v24h-152a8 8 0 0 0 -8 8v248h-16a8 8 0 0 0 -8 8v32a8 8 0 0 0 8 8zm89.223 128h-31.779l21.333-128h31.779zm142.777 0h-32v-96h32zm40-120a8.009 8.009 0 0 1 -8 8h-96a8.009 8.009 0 0 1 -8-8v-8h112zm70.777 120-21.333-128h9.93l26.094 63a23.825 23.825 0 0 0 7.945 10.125l9.144 54.875zm44.26-71.12a8 8 0 0 1 -14.786 0l-64.289-155.216 14.781-6.122 64.3 155.22a7.942 7.942 0 0 1 -.006 6.118zm-88.39-258.847-3.314 22.267-21.193 8.778-18.1-13.409a23.909 23.909 0 0 1 -9.384-23.242l7.116-42.486 35.066 25.006a23.918 23.918 0 0 1 9.809 23.086zm-.4 38.381 18.369 44.345-14.781 6.123-18.368-44.346zm125.753 147.586h-47.3l-6.628-16h53.928zm-232-304h48v16h-48zm-160 32h368v240h-36.552l-52.629-127.054 3.654-24.559a39.853 39.853 0 0 0 -16.338-38.461l-45.49-32.44a8 8 0 0 0 -12.535 5.193l-1.561 9.321h-150.549a24.028 24.028 0 0 0 -24 24v48a32 32 0 1 0 64 0 8 8 0 0 1 16 0v32a32 32 0 0 0 64 0v-32a8.009 8.009 0 0 1 8-8h16.048a39.87 39.87 0 0 0 14.469 20.528l19.96 14.79 45.016 108.682h-279.493zm198.879 77.792c-.123.737-.209 1.473-.29 2.208h-14.589a24.028 24.028 0 0 0 -24 24v32a16 16 0 0 1 -32 0v-32a24 24 0 1 0 -48 0 16 16 0 0 1 -32 0v-48a8.009 8.009 0 0 1 8-8h147.869zm-222.879 178.208h310.12l6.627 16h-316.747z"/></svg>